<mxfile host="Electron" agent="Mozilla/5.0 (X11; Linux x86_64) AppleWebKit/537.36 (KHTML, like Gecko) draw.io/26.0.9 Chrome/128.0.6613.186 Electron/32.2.5 Safari/537.36" version="26.0.9">
  <diagram name="Page-1" id="0qLj6KbLXR0Jl7XlfeyM">
    <mxGraphModel dx="1114" dy="1790" grid="1" gridSize="10" guides="1" tooltips="1" connect="1" arrows="1" fold="1" page="1" pageScale="1" pageWidth="850" pageHeight="1100" math="0" shadow="0">
      <root>
        <mxCell id="0" />
        <mxCell id="1" parent="0" />
        <mxCell id="P-hDsdYihKMiZYLf7CDE-1" value="Client / Browser&amp;nbsp;&lt;span style=&quot;background-color: transparent; color: light-dark(rgb(0, 0, 0), rgb(255, 255, 255));&quot;&gt;(Javascript)&lt;/span&gt;" style="rounded=0;whiteSpace=wrap;html=1;align=center;verticalAlign=top;fontStyle=1;fontSize=14;strokeWidth=4;fillColor=#fff2cc;strokeColor=#d6b656;" vertex="1" parent="1">
          <mxGeometry x="10" width="790" height="190" as="geometry" />
        </mxCell>
        <mxCell id="P-hDsdYihKMiZYLf7CDE-2" value="Server / Django (Python)" style="rounded=0;whiteSpace=wrap;html=1;verticalAlign=bottom;fontSize=14;fontStyle=1;strokeWidth=4;fillColor=#fff2cc;strokeColor=#d6b656;" vertex="1" parent="1">
          <mxGeometry x="10" y="290" width="770" height="350" as="geometry" />
        </mxCell>
        <mxCell id="P-hDsdYihKMiZYLf7CDE-57" value="UI Editing (Synchronous)" style="rounded=1;whiteSpace=wrap;html=1;verticalAlign=top;fontStyle=1;fontSize=14;dashed=1;dashPattern=8 8;strokeWidth=2;fillColor=#ffe6cc;strokeColor=#d79b00;" vertex="1" parent="1">
          <mxGeometry x="360" y="40" width="400" height="140" as="geometry" />
        </mxCell>
        <mxCell id="P-hDsdYihKMiZYLf7CDE-3" value="svg-utils.js&lt;div&gt;svg-icon.js&lt;/div&gt;&lt;div&gt;svg-path.js&lt;/div&gt;&lt;div&gt;svg-location.js&lt;/div&gt;&lt;div&gt;svg-event-listener.js&lt;/div&gt;" style="rounded=1;whiteSpace=wrap;html=1;fontStyle=1;fillColor=#dae8fc;strokeColor=#6c8ebf;" vertex="1" parent="1">
          <mxGeometry x="397.5" y="80" width="150" height="90" as="geometry" />
        </mxCell>
        <mxCell id="P-hDsdYihKMiZYLf7CDE-4" value="main.js&lt;div&gt;settings.js&lt;/div&gt;&lt;div&gt;edit.js&lt;/div&gt;&lt;div&gt;edit-dragdrop.js&lt;/div&gt;" style="rounded=1;whiteSpace=wrap;html=1;fontStyle=1;fillColor=#dae8fc;strokeColor=#6c8ebf;" vertex="1" parent="1">
          <mxGeometry x="572.5" y="80" width="150" height="90" as="geometry" />
        </mxCell>
        <mxCell id="P-hDsdYihKMiZYLf7CDE-58" value="Status Updates (async)" style="rounded=1;whiteSpace=wrap;html=1;verticalAlign=top;fontStyle=1;fontSize=14;dashed=1;dashPattern=8 8;strokeWidth=2;fillColor=#ffe6cc;strokeColor=#d79b00;" vertex="1" parent="1">
          <mxGeometry x="30" y="35" width="210" height="140" as="geometry" />
        </mxCell>
        <mxCell id="P-hDsdYihKMiZYLf7CDE-5" value="watchdog.js&lt;div&gt;status.js&lt;/div&gt;" style="rounded=1;whiteSpace=wrap;html=1;fontStyle=1;fillColor=#dae8fc;strokeColor=#6c8ebf;" vertex="1" parent="1">
          <mxGeometry x="60" y="70" width="150" height="90" as="geometry" />
        </mxCell>
        <mxCell id="P-hDsdYihKMiZYLf7CDE-6" value="" style="endArrow=classic;html=1;rounded=0;entryX=0.5;entryY=0;entryDx=0;entryDy=0;strokeWidth=5;" edge="1" parent="1" source="P-hDsdYihKMiZYLf7CDE-5" target="P-hDsdYihKMiZYLf7CDE-8">
          <mxGeometry width="50" height="50" relative="1" as="geometry">
            <mxPoint x="320" y="380" as="sourcePoint" />
            <mxPoint x="370" y="330" as="targetPoint" />
          </mxGeometry>
        </mxCell>
        <mxCell id="P-hDsdYihKMiZYLf7CDE-7" value="&lt;font style=&quot;font-size: 14px;&quot;&gt;Status Polling&lt;/font&gt;" style="edgeLabel;html=1;align=center;verticalAlign=middle;resizable=0;points=[];" vertex="1" connectable="0" parent="P-hDsdYihKMiZYLf7CDE-6">
          <mxGeometry x="-0.1818" y="1" relative="1" as="geometry">
            <mxPoint x="54" y="15" as="offset" />
          </mxGeometry>
        </mxCell>
        <mxCell id="P-hDsdYihKMiZYLf7CDE-8" value="monitor app" style="rounded=1;whiteSpace=wrap;html=1;fontStyle=1;fillColor=#bac8d3;strokeColor=#23445d;" vertex="1" parent="1">
          <mxGeometry x="60" y="310" width="150" height="50" as="geometry" />
        </mxCell>
        <mxCell id="P-hDsdYihKMiZYLf7CDE-9" value="Alert Monitor (bg)" style="rounded=1;whiteSpace=wrap;html=1;fontStyle=1;fillColor=#f8cecc;strokeColor=#b85450;" vertex="1" parent="1">
          <mxGeometry x="320" y="570" width="120" height="40" as="geometry" />
        </mxCell>
        <mxCell id="P-hDsdYihKMiZYLf7CDE-10" value="Notify Monitor (bg)" style="rounded=1;whiteSpace=wrap;html=1;fontStyle=1;fillColor=#f8cecc;strokeColor=#b85450;" vertex="1" parent="1">
          <mxGeometry x="160" y="490" width="120" height="40" as="geometry" />
        </mxCell>
        <mxCell id="P-hDsdYihKMiZYLf7CDE-12" value="Security Monitor (bg)" style="rounded=1;whiteSpace=wrap;html=1;fontStyle=1;fillColor=#f8cecc;strokeColor=#b85450;" vertex="1" parent="1">
          <mxGeometry x="20" y="570" width="120" height="40" as="geometry" />
        </mxCell>
        <mxCell id="P-hDsdYihKMiZYLf7CDE-16" value="" style="group;fontStyle=1" vertex="1" connectable="0" parent="1">
          <mxGeometry x="630" y="460" width="140" height="80" as="geometry" />
        </mxCell>
        <mxCell id="P-hDsdYihKMiZYLf7CDE-11" value="Integration Monitors (bg)" style="rounded=1;whiteSpace=wrap;html=1;fillColor=#f8cecc;strokeColor=#b85450;" vertex="1" parent="P-hDsdYihKMiZYLf7CDE-16">
          <mxGeometry width="120" height="60" as="geometry" />
        </mxCell>
        <mxCell id="P-hDsdYihKMiZYLf7CDE-14" value="Integration Monitors (bg)" style="rounded=1;whiteSpace=wrap;html=1;fillColor=#f8cecc;strokeColor=#b85450;" vertex="1" parent="P-hDsdYihKMiZYLf7CDE-16">
          <mxGeometry x="10" y="10" width="120" height="60" as="geometry" />
        </mxCell>
        <mxCell id="P-hDsdYihKMiZYLf7CDE-15" value="Integration Monitors (bg)" style="rounded=1;whiteSpace=wrap;html=1;fontStyle=1;fillColor=#f8cecc;strokeColor=#b85450;" vertex="1" parent="P-hDsdYihKMiZYLf7CDE-16">
          <mxGeometry x="20" y="20" width="120" height="60" as="geometry" />
        </mxCell>
        <mxCell id="P-hDsdYihKMiZYLf7CDE-23" value="" style="group;fontStyle=0" vertex="1" connectable="0" parent="1">
          <mxGeometry x="820" y="320" width="140" height="80" as="geometry" />
        </mxCell>
        <mxCell id="P-hDsdYihKMiZYLf7CDE-20" value="External API" style="rounded=1;whiteSpace=wrap;html=1;fillColor=#e1d5e7;strokeColor=#9673a6;" vertex="1" parent="P-hDsdYihKMiZYLf7CDE-23">
          <mxGeometry width="120" height="60" as="geometry" />
        </mxCell>
        <mxCell id="P-hDsdYihKMiZYLf7CDE-21" value="External API" style="rounded=1;whiteSpace=wrap;html=1;fillColor=#e1d5e7;strokeColor=#9673a6;" vertex="1" parent="P-hDsdYihKMiZYLf7CDE-23">
          <mxGeometry x="10" y="10" width="120" height="60" as="geometry" />
        </mxCell>
        <mxCell id="P-hDsdYihKMiZYLf7CDE-22" value="External API" style="rounded=1;whiteSpace=wrap;html=1;fontStyle=1;fillColor=#e1d5e7;strokeColor=#9673a6;" vertex="1" parent="P-hDsdYihKMiZYLf7CDE-23">
          <mxGeometry x="20" y="20" width="120" height="60" as="geometry" />
        </mxCell>
        <mxCell id="P-hDsdYihKMiZYLf7CDE-18" value="" style="endArrow=classic;html=1;rounded=0;strokeWidth=5;exitX=1;exitY=0.5;exitDx=0;exitDy=0;" edge="1" parent="1" source="P-hDsdYihKMiZYLf7CDE-35">
          <mxGeometry width="50" height="50" relative="1" as="geometry">
            <mxPoint x="745" y="310" as="sourcePoint" />
            <mxPoint x="840" y="370" as="targetPoint" />
          </mxGeometry>
        </mxCell>
        <mxCell id="P-hDsdYihKMiZYLf7CDE-19" value="&lt;font style=&quot;font-size: 14px;&quot;&gt;API&lt;/font&gt;" style="edgeLabel;html=1;align=center;verticalAlign=middle;resizable=0;points=[];" vertex="1" connectable="0" parent="P-hDsdYihKMiZYLf7CDE-18">
          <mxGeometry x="-0.1818" y="1" relative="1" as="geometry">
            <mxPoint x="7" y="21" as="offset" />
          </mxGeometry>
        </mxCell>
        <mxCell id="P-hDsdYihKMiZYLf7CDE-24" value="" style="endArrow=classic;html=1;rounded=0;entryX=0.5;entryY=0;entryDx=0;entryDy=0;exitX=0.75;exitY=1;exitDx=0;exitDy=0;strokeWidth=4;dashed=1;dashPattern=1 1;strokeColor=#6E6E6E;" edge="1" parent="1" source="P-hDsdYihKMiZYLf7CDE-8" target="P-hDsdYihKMiZYLf7CDE-46">
          <mxGeometry width="50" height="50" relative="1" as="geometry">
            <mxPoint x="310" y="390" as="sourcePoint" />
            <mxPoint x="360" y="340" as="targetPoint" />
          </mxGeometry>
        </mxCell>
        <mxCell id="P-hDsdYihKMiZYLf7CDE-26" value="" style="endArrow=classic;html=1;rounded=0;entryX=0.5;entryY=0;entryDx=0;entryDy=0;exitX=0.25;exitY=1;exitDx=0;exitDy=0;strokeWidth=4;dashed=1;dashPattern=1 1;strokeColor=#6E6E6E;" edge="1" parent="1" source="P-hDsdYihKMiZYLf7CDE-8" target="P-hDsdYihKMiZYLf7CDE-48">
          <mxGeometry width="50" height="50" relative="1" as="geometry">
            <mxPoint x="288" y="470" as="sourcePoint" />
            <mxPoint x="120" y="560" as="targetPoint" />
          </mxGeometry>
        </mxCell>
        <mxCell id="P-hDsdYihKMiZYLf7CDE-27" value="Sensor Response Manager" style="rounded=1;whiteSpace=wrap;html=1;fontStyle=1;fillColor=#d5e8d4;strokeColor=#82b366;" vertex="1" parent="1">
          <mxGeometry x="440" y="390" width="120" height="60" as="geometry" />
        </mxCell>
        <mxCell id="P-hDsdYihKMiZYLf7CDE-28" value="Controller Manager" style="rounded=1;whiteSpace=wrap;html=1;fontStyle=1;fillColor=#d5e8d4;strokeColor=#82b366;" vertex="1" parent="1">
          <mxGeometry x="410" y="310" width="120" height="60" as="geometry" />
        </mxCell>
        <mxCell id="P-hDsdYihKMiZYLf7CDE-29" value="" style="endArrow=classic;html=1;rounded=0;strokeWidth=5;exitX=0.25;exitY=0;exitDx=0;exitDy=0;entryX=0.25;entryY=1;entryDx=0;entryDy=0;strokeColor=#004C99;" edge="1" parent="1" source="P-hDsdYihKMiZYLf7CDE-11" target="P-hDsdYihKMiZYLf7CDE-35">
          <mxGeometry width="50" height="50" relative="1" as="geometry">
            <mxPoint x="725" y="520" as="sourcePoint" />
            <mxPoint x="465" y="420" as="targetPoint" />
          </mxGeometry>
        </mxCell>
        <mxCell id="P-hDsdYihKMiZYLf7CDE-30" value="&lt;font style=&quot;font-size: 14px;&quot;&gt;State&lt;/font&gt;&lt;div&gt;&lt;font style=&quot;font-size: 14px;&quot;&gt;Updates&lt;/font&gt;&lt;/div&gt;" style="edgeLabel;html=1;align=center;verticalAlign=middle;resizable=0;points=[];" vertex="1" connectable="0" parent="P-hDsdYihKMiZYLf7CDE-29">
          <mxGeometry x="-0.1818" y="1" relative="1" as="geometry">
            <mxPoint x="-35" y="-15" as="offset" />
          </mxGeometry>
        </mxCell>
        <mxCell id="P-hDsdYihKMiZYLf7CDE-31" value="" style="endArrow=classic;html=1;rounded=0;strokeWidth=5;exitX=1;exitY=0.5;exitDx=0;exitDy=0;entryX=0;entryY=0.5;entryDx=0;entryDy=0;" edge="1" parent="1" source="P-hDsdYihKMiZYLf7CDE-28" target="P-hDsdYihKMiZYLf7CDE-33">
          <mxGeometry width="50" height="50" relative="1" as="geometry">
            <mxPoint x="620" y="470" as="sourcePoint" />
            <mxPoint x="570" y="390" as="targetPoint" />
          </mxGeometry>
        </mxCell>
        <mxCell id="P-hDsdYihKMiZYLf7CDE-32" value="&lt;span style=&quot;font-size: 14px;&quot;&gt;Control&lt;/span&gt;&lt;div&gt;&lt;span style=&quot;font-size: 14px;&quot;&gt;Actrions&lt;/span&gt;&lt;/div&gt;" style="edgeLabel;html=1;align=center;verticalAlign=middle;resizable=0;points=[];" vertex="1" connectable="0" parent="P-hDsdYihKMiZYLf7CDE-31">
          <mxGeometry x="-0.1818" y="1" relative="1" as="geometry">
            <mxPoint x="4" y="-29" as="offset" />
          </mxGeometry>
        </mxCell>
        <mxCell id="P-hDsdYihKMiZYLf7CDE-36" value="" style="group;fontStyle=0" vertex="1" connectable="0" parent="1">
          <mxGeometry x="610" y="320" width="140" height="80" as="geometry" />
        </mxCell>
        <mxCell id="P-hDsdYihKMiZYLf7CDE-33" value="Integration Manager" style="rounded=1;whiteSpace=wrap;html=1;fillColor=#d5e8d4;strokeColor=#82b366;" vertex="1" parent="P-hDsdYihKMiZYLf7CDE-36">
          <mxGeometry width="120" height="60" as="geometry" />
        </mxCell>
        <mxCell id="P-hDsdYihKMiZYLf7CDE-34" value="Integration Manager" style="rounded=1;whiteSpace=wrap;html=1;fillColor=#d5e8d4;strokeColor=#82b366;" vertex="1" parent="P-hDsdYihKMiZYLf7CDE-36">
          <mxGeometry x="10" y="10" width="120" height="60" as="geometry" />
        </mxCell>
        <mxCell id="P-hDsdYihKMiZYLf7CDE-35" value="Integration Manager" style="rounded=1;whiteSpace=wrap;html=1;fontStyle=1;fillColor=#d5e8d4;strokeColor=#82b366;" vertex="1" parent="P-hDsdYihKMiZYLf7CDE-36">
          <mxGeometry x="20" y="20" width="120" height="60" as="geometry" />
        </mxCell>
        <mxCell id="P-hDsdYihKMiZYLf7CDE-37" value="" style="endArrow=classic;html=1;rounded=0;strokeWidth=5;exitX=0.75;exitY=0;exitDx=0;exitDy=0;entryX=0.75;entryY=1;entryDx=0;entryDy=0;" edge="1" parent="1" source="P-hDsdYihKMiZYLf7CDE-11" target="P-hDsdYihKMiZYLf7CDE-35">
          <mxGeometry width="50" height="50" relative="1" as="geometry">
            <mxPoint x="755" y="365" as="sourcePoint" />
            <mxPoint x="865" y="365" as="targetPoint" />
          </mxGeometry>
        </mxCell>
        <mxCell id="P-hDsdYihKMiZYLf7CDE-38" value="&lt;font style=&quot;font-size: 14px;&quot;&gt;API Polling&lt;/font&gt;" style="edgeLabel;html=1;align=center;verticalAlign=middle;resizable=0;points=[];" vertex="1" connectable="0" parent="P-hDsdYihKMiZYLf7CDE-37">
          <mxGeometry x="-0.1818" y="1" relative="1" as="geometry">
            <mxPoint x="41" y="-11" as="offset" />
          </mxGeometry>
        </mxCell>
        <mxCell id="P-hDsdYihKMiZYLf7CDE-39" value="Event Manager" style="rounded=1;whiteSpace=wrap;html=1;fontStyle=1;fillColor=#d5e8d4;strokeColor=#82b366;" vertex="1" parent="1">
          <mxGeometry x="480" y="490" width="120" height="60" as="geometry" />
        </mxCell>
        <mxCell id="P-hDsdYihKMiZYLf7CDE-40" value="" style="endArrow=classic;html=1;rounded=0;strokeWidth=5;exitX=0;exitY=1;exitDx=0;exitDy=0;entryX=1;entryY=0.5;entryDx=0;entryDy=0;strokeColor=#004C99;" edge="1" parent="1" source="P-hDsdYihKMiZYLf7CDE-33" target="P-hDsdYihKMiZYLf7CDE-27">
          <mxGeometry width="50" height="50" relative="1" as="geometry">
            <mxPoint x="630" y="470" as="sourcePoint" />
            <mxPoint x="645" y="410" as="targetPoint" />
          </mxGeometry>
        </mxCell>
        <mxCell id="P-hDsdYihKMiZYLf7CDE-42" value="" style="endArrow=classic;html=1;rounded=0;entryX=0;entryY=0.5;entryDx=0;entryDy=0;exitX=1;exitY=0.5;exitDx=0;exitDy=0;strokeWidth=4;dashed=1;dashPattern=1 1;strokeColor=#6E6E6E;" edge="1" parent="1" source="P-hDsdYihKMiZYLf7CDE-8" target="P-hDsdYihKMiZYLf7CDE-27">
          <mxGeometry width="50" height="50" relative="1" as="geometry">
            <mxPoint x="183" y="450" as="sourcePoint" />
            <mxPoint x="375" y="540" as="targetPoint" />
          </mxGeometry>
        </mxCell>
        <mxCell id="P-hDsdYihKMiZYLf7CDE-43" value="" style="endArrow=classic;html=1;rounded=0;strokeWidth=5;exitX=0.5;exitY=1;exitDx=0;exitDy=0;entryX=0.5;entryY=0;entryDx=0;entryDy=0;strokeColor=#004C99;" edge="1" parent="1" source="P-hDsdYihKMiZYLf7CDE-27" target="P-hDsdYihKMiZYLf7CDE-39">
          <mxGeometry width="50" height="50" relative="1" as="geometry">
            <mxPoint x="595" y="390" as="sourcePoint" />
            <mxPoint x="520" y="430" as="targetPoint" />
          </mxGeometry>
        </mxCell>
        <mxCell id="P-hDsdYihKMiZYLf7CDE-44" value="" style="endArrow=classic;html=1;rounded=0;strokeWidth=5;exitX=0;exitY=0.5;exitDx=0;exitDy=0;entryX=1;entryY=0.5;entryDx=0;entryDy=0;strokeColor=#004C99;" edge="1" parent="1" source="P-hDsdYihKMiZYLf7CDE-39" target="P-hDsdYihKMiZYLf7CDE-46">
          <mxGeometry width="50" height="50" relative="1" as="geometry">
            <mxPoint x="605" y="400" as="sourcePoint" />
            <mxPoint x="530" y="440" as="targetPoint" />
          </mxGeometry>
        </mxCell>
        <mxCell id="P-hDsdYihKMiZYLf7CDE-45" value="" style="endArrow=classic;html=1;rounded=0;strokeWidth=5;exitX=0;exitY=0.5;exitDx=0;exitDy=0;entryX=1;entryY=0.5;entryDx=0;entryDy=0;strokeColor=#004C99;" edge="1" parent="1" source="P-hDsdYihKMiZYLf7CDE-46" target="P-hDsdYihKMiZYLf7CDE-47">
          <mxGeometry width="50" height="50" relative="1" as="geometry">
            <mxPoint x="615" y="410" as="sourcePoint" />
            <mxPoint x="540" y="450" as="targetPoint" />
          </mxGeometry>
        </mxCell>
        <mxCell id="P-hDsdYihKMiZYLf7CDE-46" value="Alert Manager" style="rounded=1;whiteSpace=wrap;html=1;fontStyle=1;fillColor=#d5e8d4;strokeColor=#82b366;" vertex="1" parent="1">
          <mxGeometry x="320" y="490" width="120" height="60" as="geometry" />
        </mxCell>
        <mxCell id="P-hDsdYihKMiZYLf7CDE-47" value="Notify Manager" style="rounded=1;whiteSpace=wrap;html=1;fontStyle=1;fillColor=#d5e8d4;strokeColor=#82b366;" vertex="1" parent="1">
          <mxGeometry x="160" y="550" width="120" height="60" as="geometry" />
        </mxCell>
        <mxCell id="P-hDsdYihKMiZYLf7CDE-48" value="Security Manager" style="rounded=1;whiteSpace=wrap;html=1;fontStyle=1;fillColor=#d5e8d4;strokeColor=#82b366;" vertex="1" parent="1">
          <mxGeometry x="20" y="490" width="120" height="60" as="geometry" />
        </mxCell>
        <mxCell id="P-hDsdYihKMiZYLf7CDE-49" value="" style="endArrow=classic;html=1;rounded=0;exitX=0.5;exitY=0;exitDx=0;exitDy=0;strokeWidth=4;dashed=1;dashPattern=1 1;strokeColor=#6E6E6E;entryX=0.5;entryY=1;entryDx=0;entryDy=0;" edge="1" parent="1" source="P-hDsdYihKMiZYLf7CDE-12" target="P-hDsdYihKMiZYLf7CDE-48">
          <mxGeometry width="50" height="50" relative="1" as="geometry">
            <mxPoint x="145" y="370" as="sourcePoint" />
            <mxPoint x="220" y="500" as="targetPoint" />
          </mxGeometry>
        </mxCell>
        <mxCell id="P-hDsdYihKMiZYLf7CDE-50" value="" style="endArrow=classic;html=1;rounded=0;exitX=0.5;exitY=1;exitDx=0;exitDy=0;strokeWidth=4;dashed=1;dashPattern=1 1;strokeColor=#6E6E6E;entryX=0.5;entryY=0;entryDx=0;entryDy=0;" edge="1" parent="1" source="P-hDsdYihKMiZYLf7CDE-10" target="P-hDsdYihKMiZYLf7CDE-47">
          <mxGeometry width="50" height="50" relative="1" as="geometry">
            <mxPoint x="155" y="380" as="sourcePoint" />
            <mxPoint x="230" y="510" as="targetPoint" />
          </mxGeometry>
        </mxCell>
        <mxCell id="P-hDsdYihKMiZYLf7CDE-51" value="" style="endArrow=classic;html=1;rounded=0;entryX=0.5;entryY=1;entryDx=0;entryDy=0;strokeWidth=4;dashed=1;dashPattern=1 1;strokeColor=#6E6E6E;exitX=0.5;exitY=0;exitDx=0;exitDy=0;" edge="1" parent="1" source="P-hDsdYihKMiZYLf7CDE-9" target="P-hDsdYihKMiZYLf7CDE-46">
          <mxGeometry width="50" height="50" relative="1" as="geometry">
            <mxPoint x="165" y="390" as="sourcePoint" />
            <mxPoint x="240" y="520" as="targetPoint" />
          </mxGeometry>
        </mxCell>
        <mxCell id="P-hDsdYihKMiZYLf7CDE-52" value="Settings Manager" style="rounded=1;whiteSpace=wrap;html=1;fontStyle=1;fillColor=#d5e8d4;strokeColor=#82b366;" vertex="1" parent="1">
          <mxGeometry x="110" y="400" width="120" height="60" as="geometry" />
        </mxCell>
        <mxCell id="P-hDsdYihKMiZYLf7CDE-54" value="User" style="rounded=1;whiteSpace=wrap;html=1;fontStyle=1;fillColor=#e1d5e7;strokeColor=#9673a6;" vertex="1" parent="1">
          <mxGeometry x="160" y="670" width="120" height="60" as="geometry" />
        </mxCell>
        <mxCell id="P-hDsdYihKMiZYLf7CDE-55" value="" style="endArrow=classic;html=1;rounded=0;strokeWidth=5;exitX=0.5;exitY=1;exitDx=0;exitDy=0;entryX=0.5;entryY=0;entryDx=0;entryDy=0;" edge="1" parent="1" source="P-hDsdYihKMiZYLf7CDE-47" target="P-hDsdYihKMiZYLf7CDE-54">
          <mxGeometry width="50" height="50" relative="1" as="geometry">
            <mxPoint x="760" y="380" as="sourcePoint" />
            <mxPoint x="850" y="380" as="targetPoint" />
          </mxGeometry>
        </mxCell>
        <mxCell id="P-hDsdYihKMiZYLf7CDE-56" value="&lt;font style=&quot;font-size: 14px;&quot;&gt;Emails&lt;/font&gt;" style="edgeLabel;html=1;align=center;verticalAlign=middle;resizable=0;points=[];" vertex="1" connectable="0" parent="P-hDsdYihKMiZYLf7CDE-55">
          <mxGeometry x="-0.1818" y="1" relative="1" as="geometry">
            <mxPoint x="29" y="4" as="offset" />
          </mxGeometry>
        </mxCell>
        <mxCell id="P-hDsdYihKMiZYLf7CDE-59" value="" style="endArrow=classic;html=1;rounded=0;entryX=0.5;entryY=0;entryDx=0;entryDy=0;exitX=0.5;exitY=1;exitDx=0;exitDy=0;strokeWidth=4;dashed=1;dashPattern=1 1;strokeColor=#6E6E6E;" edge="1" parent="1" source="P-hDsdYihKMiZYLf7CDE-8" target="P-hDsdYihKMiZYLf7CDE-52">
          <mxGeometry width="50" height="50" relative="1" as="geometry">
            <mxPoint x="108" y="370" as="sourcePoint" />
            <mxPoint x="90" y="500" as="targetPoint" />
          </mxGeometry>
        </mxCell>
      </root>
    </mxGraphModel>
  </diagram>
</mxfile>
